<svg xmlns="http://www.w3.org/2000/svg" viewBox="0 0 280 64">
  <!-- BasisPilot Full Logo (White) — for dark / brand backgrounds -->
  <!-- Mark -->
  <g>
    <rect width="64" height="64" rx="14" fill="rgba(255,255,255,0.12)"/>
    <path fill-rule="evenodd" d="
      M18 13 C18 11.9 18.9 11 20 11 H33
      C39 11 43.5 15 43.5 21 C43.5 25.2 41 28.5 37.5 30
      C41.8 31.5 45 35.5 45 41 C45 47.5 40.5 52 34 52
      H20 C18.9 52 18 51.1 18 50 Z
      M26 18 H31.5 C34.5 18 37 20.2 37 23 C37 25.8 34.5 28 31.5 28 H26 Z
      M26 35 H32.5 C36 35 38.5 37.2 38.5 40.5 C38.5 43.8 36 46 32.5 46 H26 Z
    " fill="white"/>
    <!-- AI Agent pulse dot -->
    <circle cx="47" cy="13" r="5.5" fill="rgba(255,255,255,0.5)"/>
    <circle cx="47" cy="13" r="2.5" fill="white"/>
  </g>
  <!-- Wordmark (white) -->
  <text x="78" y="30" font-family="Inter, -apple-system, BlinkMacSystemFont, 'Segoe UI', sans-serif"
        font-size="24" font-weight="700" letter-spacing="-0.03em" fill="white">BasisPilot</text>
  <text x="78" y="50" font-family="Inter, 'Noto Sans SC', -apple-system, BlinkMacSystemFont, sans-serif"
        font-size="14" font-weight="500" letter-spacing="0.08em" fill="rgba(255,255,255,0.7)">贝领</text>
</svg>
