<svg xmlns="http://www.w3.org/2000/svg" viewBox="0 0 280 64" fill="none">
  <!-- BasisPilot Full Logo (White variant) — for dark/teal backgrounds -->

  <!-- === Logo Mark (compass + B, white) === -->
  <g>
    <circle cx="32" cy="32" r="29" stroke="white" stroke-width="2.5" fill="none"/>

    <line x1="32" y1="3" x2="32" y2="8" stroke="white" stroke-width="2.5" stroke-linecap="round"/>
    <line x1="32" y1="56" x2="32" y2="61" stroke="white" stroke-width="1.5" stroke-linecap="round" opacity="0.4"/>
    <line x1="56" y1="32" x2="61" y2="32" stroke="white" stroke-width="1.5" stroke-linecap="round" opacity="0.4"/>
    <line x1="3" y1="32" x2="8" y2="32" stroke="white" stroke-width="1.5" stroke-linecap="round" opacity="0.4"/>

    <line x1="11.2" y1="11.2" x2="14.7" y2="14.7" stroke="white" stroke-width="1" stroke-linecap="round" opacity="0.25"/>
    <line x1="49.3" y1="14.7" x2="52.8" y2="11.2" stroke="white" stroke-width="1" stroke-linecap="round" opacity="0.25"/>
    <line x1="14.7" y1="49.3" x2="11.2" y2="52.8" stroke="white" stroke-width="1" stroke-linecap="round" opacity="0.25"/>
    <line x1="52.8" y1="52.8" x2="49.3" y2="49.3" stroke="white" stroke-width="1" stroke-linecap="round" opacity="0.25"/>

    <line x1="22" y1="18" x2="22" y2="46" stroke="white" stroke-width="3.5" stroke-linecap="round"/>
    <path d="M22 18 L34 18 C40 18 40 26 34 26 L22 26" stroke="white" stroke-width="3.5" stroke-linecap="round" stroke-linejoin="round" fill="none"/>
    <path d="M22 26 L36 26 C43 26 43 35.5 36 35.5 L22 35.5" stroke="white" stroke-width="3.5" stroke-linecap="round" stroke-linejoin="round" fill="none"/>

    <path d="M32 5.5 L34 11 L32 9.5 L30 11 Z" fill="white"/>

    <circle cx="40" cy="40" r="3.5" fill="white" opacity="0.15"/>
    <circle cx="40" cy="40" r="1.8" fill="white" opacity="0.5"/>
  </g>

  <!-- === Wordmark (white) === -->
  <g>
    <text x="76" y="30" font-family="Inter, -apple-system, BlinkMacSystemFont, 'Segoe UI', sans-serif"
          font-size="24" font-weight="700" letter-spacing="-0.03em" fill="white">
      BasisPilot
    </text>
    <text x="76" y="50" font-family="Inter, 'Noto Sans SC', -apple-system, BlinkMacSystemFont, sans-serif"
          font-size="14" font-weight="500" letter-spacing="0.08em" fill="rgba(255,255,255,0.7)">
      贝领
    </text>
  </g>
</svg>
